<?xml version="1.0" standalone="no"?>
<!DOCTYPE svg PUBLIC "-//W3C//DTD SVG 20010904//EN"
 "http://www.w3.org/TR/2001/REC-SVG-20010904/DTD/svg10.dtd">
<svg version="1.0" xmlns="http://www.w3.org/2000/svg"
 width="1000.000000pt" height="1000.000000pt" viewBox="0 0 1000.000000 1000.000000"
 preserveAspectRatio="xMidYMid meet">

<g transform="translate(0.000000,1000.000000) scale(0.100000,-0.100000)"
fill="#000000" stroke="none">
<path d="M2310 6345 l0 -645 165 0 165 0 0 500 0 500 458 0 c496 0 600 -8 762
-54 187 -54 344 -147 486 -290 163 -162 267 -355 334 -613 l11 -43 164 0 c96
0 165 4 165 9 0 30 -35 170 -66 260 -166 496 -529 843 -1011 965 -203 52 -281
56 -984 56 l-649 0 0 -645z"/>
<path d="M5250 6845 l0 -145 595 0 595 0 0 -500 0 -500 165 0 165 0 0 500 0
500 600 0 600 0 0 145 0 145 -1360 0 -1360 0 0 -145z"/>
<path d="M5291 5354 c0 -11 3 -14 6 -6 3 7 2 16 -1 19 -3 4 -6 -2 -5 -13z"/>
<path d="M3937 5313 c-4 -3 -7 -42 -7 -85 l0 -78 49 0 c42 0 53 4 70 26 21 26
27 67 15 99 -13 32 -106 60 -127 38z m97 -29 c9 -9 16 -32 16 -54 0 -45 -26
-70 -72 -70 -28 0 -28 0 -28 70 l0 70 34 0 c19 0 42 -7 50 -16z"/>
<path d="M4160 5235 l0 -85 58 2 c56 2 56 2 10 5 -47 4 -48 5 -48 38 0 33 2
34 43 38 l42 4 -42 1 c-41 2 -43 4 -43 32 0 29 2 30 45 30 25 0 45 5 45 10 0
6 -25 10 -55 10 l-55 0 0 -85z"/>
<path d="M4488 5249 l-3 -71 -53 66 c-29 36 -57 66 -62 66 -6 0 -10 -35 -10
-80 0 -96 18 -108 22 -15 l3 65 50 -64 c28 -36 53 -65 58 -66 4 0 7 38 7 85 0
47 -2 85 -5 85 -2 0 -5 -32 -7 -71z"/>
<path d="M4607 5313 c-11 -11 -8 -163 3 -163 6 0 10 35 10 85 0 85 -1 91 -13
78z"/>
<path d="M4710 5310 c0 -5 23 -10 50 -10 28 0 50 -3 50 -6 0 -3 -22 -33 -50
-67 -27 -34 -50 -65 -50 -69 0 -5 30 -7 68 -6 l67 1 -58 6 -58 6 55 72 c31 39
56 74 56 77 0 3 -29 6 -65 6 -37 0 -65 -4 -65 -10z"/>
<path d="M5030 5310 c0 -5 13 -10 30 -10 l29 0 4 -77 3 -78 2 78 2 77 30 0
c17 0 30 5 30 10 0 6 -28 10 -65 10 -37 0 -65 -4 -65 -10z"/>
<path d="M5246 5307 c-13 -28 -1 -115 19 -137 23 -25 76 -26 98 -2 18 20 31
139 16 148 -5 3 -9 -21 -9 -53 0 -67 -19 -103 -54 -103 -38 0 -55 29 -58 100
-2 45 -6 60 -12 47z"/>
<path d="M5470 5310 c0 -5 24 -10 54 -12 l55 -3 -54 -65 c-30 -36 -54 -68 -54
-72 -1 -5 29 -7 67 -6 l67 1 -58 6 -58 6 56 67 c30 36 55 71 55 77 0 7 -25 11
-65 11 -36 0 -65 -4 -65 -10z"/>
<path d="M5691 5260 c-1 -81 15 -110 62 -110 38 0 50 7 66 37 14 27 15 137 1
128 -5 -3 -10 -33 -10 -65 0 -62 -15 -90 -49 -90 -38 0 -54 25 -61 96 l-7 69
-2 -65z"/>
<path d="M5932 5233 l2 -88 5 70 6 69 53 -67 c29 -37 57 -67 62 -67 6 0 10 36
10 85 0 102 -18 114 -22 15 l-3 -70 -53 70 c-30 38 -56 70 -58 70 -2 0 -3 -39
-2 -87z"/>
<path d="M2310 4200 l0 -570 578 0 c754 0 900 12 1149 95 365 122 670 392 840
745 37 75 113 276 113 296 0 2 -78 4 -173 4 l-172 0 -24 -62 c-66 -174 -158
-317 -280 -439 -139 -138 -310 -241 -481 -289 -161 -45 -237 -50 -742 -50
l-478 0 0 420 0 420 -165 0 -165 0 0 -570z"/>
<path d="M6445 4758 c-3 -7 -4 -263 -3 -568 l3 -555 163 -3 c157 -2 162 -2
162 18 0 11 0 266 0 568 l0 547 -160 3 c-123 2 -162 0 -165 -10z"/>
<path d="M2527 3043 c-3 -5 -5 -63 -5 -130 -1 -101 2 -123 14 -123 11 0 14 15
14 60 0 68 21 100 65 100 33 0 45 -31 45 -111 0 -38 4 -58 10 -54 17 11 12
151 -6 169 -20 20 -63 20 -92 0 -22 -15 -22 -15 -22 35 0 45 -12 73 -23 54z"/>
<path d="M3370 3030 c0 -11 5 -20 10 -20 6 0 10 9 10 20 0 11 -4 20 -10 20 -5
0 -10 -9 -10 -20z"/>
<path d="M4240 3030 c0 -13 5 -20 13 -17 6 2 12 10 12 17 0 7 -6 15 -12 18 -8
2 -13 -5 -13 -18z"/>
<path d="M6955 3038 c-10 -25 0 -248 10 -251 6 -1 11 12 13 29 2 18 11 39 21
48 18 16 21 14 55 -34 20 -28 41 -48 46 -45 6 3 -6 27 -25 52 -19 25 -35 51
-35 56 0 6 14 26 32 44 18 18 27 33 22 33 -5 0 -30 -20 -54 -45 -24 -25 -48
-45 -52 -45 -4 0 -8 36 -8 79 0 73 -13 112 -25 79z"/>
<path d="M2440 2910 c0 -80 4 -130 10 -130 6 0 10 50 10 130 0 80 -4 130 -10
130 -6 0 -10 -50 -10 -130z"/>
<path d="M3162 2915 c2 -75 7 -125 13 -125 6 0 11 25 13 55 l3 55 59 0 c33 0
60 4 60 10 0 6 -27 10 -60 10 l-60 0 0 50 0 50 70 0 c40 0 70 4 70 10 0 6 -35
10 -85 10 l-86 0 3 -125z"/>
<path d="M5470 2950 c0 -112 14 -144 69 -161 48 -14 87 -3 115 35 17 22 22 46
24 122 5 121 -13 125 -20 4 -4 -57 -11 -98 -21 -114 -30 -46 -108 -38 -134 14
-7 14 -13 61 -13 108 0 48 -4 82 -10 82 -6 0 -10 -37 -10 -90z"/>
<path d="M6542 2915 c2 -75 7 -125 13 -125 6 0 11 25 13 55 l3 55 59 0 c33 0
60 4 60 10 0 6 -27 10 -60 10 l-60 0 0 50 0 50 70 0 c40 0 70 4 70 10 0 6 -35
10 -85 10 l-86 0 3 -125z"/>
<path d="M2730 2880 c0 -72 3 -90 15 -90 11 0 15 16 17 68 3 65 4 68 35 82 18
8 33 18 33 23 0 12 -24 8 -48 -9 -20 -14 -22 -14 -22 0 0 9 -7 16 -15 16 -12
0 -15 -17 -15 -90z"/>
<path d="M2877 2950 c-53 -42 -40 -138 21 -161 33 -13 85 -4 102 17 19 22 5
28 -22 10 -31 -22 -64 -20 -88 4 -40 40 -27 50 61 50 l81 0 -6 28 c-16 65 -97
93 -149 52z m97 -11 c14 -11 26 -28 26 -37 0 -14 -11 -17 -65 -17 -53 0 -65 3
-65 16 0 22 39 54 71 58 4 1 18 -8 33 -20z"/>
<path d="M3370 2875 c0 -57 4 -95 10 -95 6 0 10 38 10 95 0 57 -4 95 -10 95
-6 0 -10 -38 -10 -95z"/>
<path d="M3450 2880 c0 -53 4 -90 10 -90 6 0 10 26 10 58 0 48 4 62 23 80 13
12 35 22 50 22 30 0 35 -13 39 -103 2 -32 7 -56 13 -55 14 4 10 145 -5 163
-16 20 -64 19 -95 -1 -23 -15 -25 -15 -25 0 0 9 -4 16 -10 16 -6 0 -10 -37
-10 -90z"/>
<path d="M3672 2958 c-19 -19 -14 -30 7 -18 32 17 79 12 91 -9 18 -34 12 -41
-40 -41 -60 0 -95 -27 -85 -63 14 -45 57 -59 105 -34 21 11 27 11 37 -2 18
-25 21 -11 14 73 -5 60 -11 81 -26 92 -23 17 -87 18 -103 2z m97 -87 c12 -8
13 -15 3 -35 -20 -45 -92 -46 -101 -1 -6 35 61 59 98 36z"/>
<path d="M3852 2880 c-2 -74 1 -90 13 -90 12 0 15 13 15 60 0 68 21 100 65
100 33 0 45 -26 45 -99 0 -34 4 -61 10 -61 13 0 13 136 0 161 -13 24 -66 26
-98 3 -20 -14 -22 -14 -22 0 0 9 -6 16 -13 16 -11 0 -14 -22 -15 -90z"/>
<path d="M4050 2960 c0 -6 27 -10 61 -10 l60 0 -61 -75 c-34 -41 -58 -79 -55
-85 8 -13 145 -13 145 0 0 5 -27 10 -61 12 l-61 3 61 75 c34 41 61 78 61 82 0
4 -34 8 -75 8 -43 0 -75 -4 -75 -10z"/>
<path d="M4242 2878 c4 -120 22 -119 25 2 1 73 -2 90 -13 90 -12 0 -14 -17
-12 -92z"/>
<path d="M4336 2944 c-38 -38 -36 -95 3 -135 37 -37 79 -38 118 -4 15 13 22
25 15 25 -7 0 -20 -7 -28 -15 -25 -24 -70 -19 -93 11 -12 15 -21 31 -21 35 0
5 36 9 80 9 77 0 80 1 80 24 0 12 -11 35 -25 50 -34 36 -92 36 -129 0z m117
-16 c9 -11 17 -24 17 -29 0 -5 -31 -9 -70 -9 -72 0 -79 4 -57 32 32 41 77 43
110 6z"/>
<path d="M4532 2878 c3 -101 23 -124 23 -27 0 58 13 84 46 94 10 4 19 11 19
16 0 14 -26 11 -40 -6 -7 -8 -16 -15 -21 -15 -5 0 -9 7 -9 15 0 8 -5 15 -10
15 -7 0 -10 -33 -8 -92z"/>
<path d="M4660 2892 c0 -64 4 -82 18 -95 24 -22 50 -21 90 3 25 15 32 17 32 5
0 -7 5 -17 10 -20 6 -4 10 28 10 89 0 79 -3 96 -15 96 -12 0 -15 -14 -15 -65
0 -53 -4 -68 -22 -85 -28 -25 -64 -26 -78 -1 -5 11 -10 49 -10 85 0 37 -4 66
-10 66 -6 0 -10 -33 -10 -78z"/>
<path d="M4870 2881 c0 -50 4 -92 9 -96 14 -8 22 24 20 78 -3 56 20 87 62 87
36 0 40 -7 46 -95 7 -91 23 -89 23 3 0 83 -17 112 -64 112 -19 0 -39 -7 -46
-15 -7 -8 -16 -15 -21 -15 -5 0 -9 7 -9 15 0 8 -4 15 -10 15 -6 0 -10 -36 -10
-89z"/>
<path d="M5112 2963 c-19 -7 -42 -58 -42 -91 0 -64 75 -111 125 -78 13 9 27
16 31 16 13 0 -8 -56 -28 -72 -25 -22 -44 -22 -82 -3 -34 18 -36 18 -36 4 0
-17 68 -40 98 -33 15 4 37 16 50 27 20 19 22 29 22 129 0 65 -4 108 -10 108
-5 0 -10 -7 -10 -16 0 -14 -2 -14 -22 0 -22 15 -69 20 -96 9z m92 -28 c36 -36
32 -94 -9 -121 -70 -46 -134 54 -77 119 19 21 65 22 86 2z"/>
<path d="M5732 2878 c3 -108 20 -121 28 -22 5 71 22 94 67 94 31 0 43 -28 43
-104 0 -37 4 -66 10 -66 13 0 13 146 0 171 -13 23 -67 26 -96 4 -25 -19 -38
-19 -30 0 3 9 0 15 -10 15 -12 0 -14 -16 -12 -92z"/>
<path d="M5956 2954 c-34 -34 -17 -64 50 -87 49 -17 60 -53 19 -63 -25 -6 -42
-4 -77 11 -28 11 -21 -11 7 -23 55 -25 111 -9 119 35 5 26 -13 43 -68 63 -23
9 -42 23 -44 33 -5 23 34 37 72 26 33 -10 48 -3 26 11 -24 15 -87 11 -104 -6z"/>
<path d="M6135 2945 c-19 -18 -25 -35 -25 -69 0 -37 5 -48 31 -70 17 -15 43
-26 59 -26 30 0 80 34 68 46 -5 4 -16 0 -26 -9 -26 -24 -65 -21 -90 6 -38 40
-29 47 58 47 86 0 94 6 68 53 -18 34 -39 46 -81 47 -27 0 -45 -7 -62 -25z m95
0 c17 -9 30 -22 30 -30 0 -8 0 -18 0 -21 0 -8 -118 -9 -126 -2 -15 15 28 60
64 67 2 1 16 -6 32 -14z"/>
<path d="M6330 2880 c0 -102 17 -124 22 -28 3 58 5 64 35 83 18 11 32 23 33
28 0 14 -30 7 -50 -13 l-20 -20 0 20 c0 11 -4 20 -10 20 -6 0 -10 -37 -10 -90z"/>
<path d="M6755 2945 c-19 -18 -25 -35 -25 -69 0 -37 5 -48 31 -70 41 -35 83
-34 120 3 38 39 39 87 3 130 -34 41 -92 44 -129 6z m110 -15 c27 -30 25 -88
-4 -111 -31 -26 -57 -24 -86 6 -30 30 -32 64 -4 99 25 32 68 35 94 6z"/>
<path d="M7142 2889 c3 -66 7 -83 23 -95 26 -20 58 -17 88 6 25 20 25 20 30 0
3 -11 11 -20 17 -20 8 0 10 8 6 23 -3 12 -6 55 -6 95 0 41 -4 72 -10 72 -6 0
-10 -27 -10 -60 0 -51 -4 -65 -25 -85 -26 -27 -54 -32 -73 -13 -7 7 -12 42
-12 85 0 60 -3 73 -16 73 -14 0 -16 -12 -12 -81z"/>
<path d="M7365 2946 c-22 -34 -6 -62 44 -76 50 -13 68 -34 50 -56 -13 -16 -54
-16 -93 1 -14 6 -18 5 -14 -6 2 -8 21 -18 42 -24 52 -13 91 9 91 50 0 27 -5
32 -53 49 -44 15 -52 23 -50 40 3 18 10 21 51 20 47 0 61 8 31 20 -38 14 -83
6 -99 -18z"/>
<path d="M5300 2800 c0 -11 5 -20 10 -20 6 0 10 9 10 20 0 11 -4 20 -10 20 -5
0 -10 -9 -10 -20z"/>
<path d="M7530 2799 c0 -11 5 -17 10 -14 6 3 10 13 10 21 0 8 -4 14 -10 14 -5
0 -10 -9 -10 -21z"/>
</g>
</svg>
